# xmcd CD database file
#
# Track frame offsets:
#	180
#	16305
#	31499
#	41609
#	55925
#	74469
#	87219
#	100942
#	115890
#	130990
#	143100
#	158269
#	174082
#	185759
#	200287
#	214775
#	231244
#	245225
#	259231
#
# Disc length: 3629 seconds
#
# Revision: 0
# Processed by: cddbd v1.5.1PL2 Copyright (c) Steve Scherf et al.
# Submitted via: CDex 1.70beta2
#
DISCID=0c0e2b13
DTITLE=Glenn Miller - In The Mood
DYEAR=1900
DGENRE=Jazz
TTITLE0=In The Mood
TTITLE1=Moonlight Serenade
TTITLE2=This Can't Be Love
TTITLE3=Pennsylvania 6-5000
TTITLE4=Down South Camp Meeting
TTITLE5=The Lady's In Love With You
TTITLE6=I Never Knew
TTITLE7=Bugle Ball Rag
TTITLE8=Change Partners
TTITLE9=Slumber Song
TTITLE10=Star Dust
TTITLE11=Serenade In Blues
TTITLE12=Skade Down The Stars
TTITLE13=Slown Freight
TTITLE14=The Wearness Of You
TTITLE15=I Dreamt I Dwelt In Harlem
TTITLE16=Elmers Tune
TTITLE17=That Old Black Magic
TTITLE18=Wishing (Will Make It So)
EXTD=
EXTT0=
EXTT1=
EXTT2=
EXTT3=
EXTT4=
EXTT5=
EXTT6=
EXTT7=
EXTT8=
EXTT9=
EXTT10=
EXTT11=
EXTT12=
EXTT13=
EXTT14=
EXTT15=
EXTT16=
EXTT17=
EXTT18=
PLAYORDER=
